<svg width="51" height="47" viewBox="0 0 51 47" fill="none" xmlns="http://www.w3.org/2000/svg">
<path d="M33.73 22.9528L33.7132 28.0048C33.7195 25.7968 32.2598 23.5855 29.3372 21.8992C23.5239 18.5451 14.1523 18.5451 8.38194 21.8963C5.51468 23.5614 4.07845 25.7393 4.07227 27.9207L4.08903 22.8687C4.09523 20.6873 5.53146 18.5094 8.39871 16.8443C14.1691 13.4931 23.5406 13.4931 29.3539 16.8472C32.2766 18.5335 33.7363 20.7448 33.73 22.9528Z" fill="#2F8836"/>
<path d="M33.7133 28.3165C33.5409 28.3161 33.4012 28.1761 33.4016 28.0041C33.4073 25.8154 31.9086 23.7428 29.1814 22.1695C23.4698 18.8745 14.2097 18.873 8.53845 22.1657C5.86797 23.7169 4.39287 25.7591 4.38412 27.9161V27.9218C4.38374 28.0935 4.24407 28.2324 4.07243 28.2324C3.90498 28.2248 3.76036 28.0927 3.76074 27.9199V27.9169C3.76074 27.9165 3.76074 27.9173 3.76074 27.9169L3.77749 22.8675C3.78396 20.4779 5.3698 18.2431 8.24236 16.5747C14.0849 13.1811 23.6258 13.1827 29.5095 16.577C32.4388 18.2671 34.0486 20.5319 34.0417 22.9535L34.025 28.006C34.0246 28.1776 33.8849 28.3165 33.7133 28.3165ZM18.8405 19.0823C22.6931 19.0823 26.5498 19.9314 29.4927 21.6291C31.361 22.7069 32.6922 24.0183 33.41 25.4554L33.4183 22.9516C33.4244 20.7629 31.9254 18.6911 29.1982 17.1174C23.4866 13.8224 14.2265 13.8209 8.55519 17.1136C5.88243 18.6663 4.40695 20.7104 4.40087 22.8694L4.39249 25.3694C5.10568 23.9647 6.408 22.6821 8.22562 21.6268C11.1461 19.9306 14.991 19.0823 18.8405 19.0823Z" fill="black"/>
<path d="M36.93 22.9665L36.9143 29.2215C36.9068 31.8723 35.1646 34.5191 31.6814 36.542C24.6614 40.6188 13.2513 40.6133 6.19508 36.5421C2.64004 34.491 0.863003 31.7984 0.87063 29.1099L0.886243 22.855C0.878619 25.5435 2.65566 28.2361 6.2107 30.2872C13.2669 34.3584 24.677 34.3639 31.697 30.2871C35.1803 28.2642 36.9224 25.6173 36.93 22.9665Z" fill="#2F8836"/>
<path d="M18.9552 39.8996C14.2837 39.8996 9.60721 38.8709 6.03935 36.8124C2.49698 34.7684 0.550736 32.0324 0.559109 29.1092L0.574712 22.8587C0.574712 22.8572 0.574712 22.8557 0.574712 22.8542C0.575093 22.6821 0.714763 22.5432 0.886401 22.5432C1.06451 22.5413 1.19847 22.6833 1.19809 22.8557C1.19048 25.5463 3.02598 28.0897 6.36664 30.0169C13.3292 34.035 24.6223 34.035 31.5407 30.0177C34.8072 28.1201 36.6107 25.6156 36.6183 22.9657C36.6187 22.7933 36.79 22.6559 36.9308 22.6547C37.1032 22.6551 37.2421 22.7952 37.2417 22.9672L37.2261 29.2223C37.2177 32.1036 35.3042 34.7988 31.838 36.8113C28.2933 38.8702 23.6267 39.8996 18.9552 39.8996ZM1.19124 25.6666L1.18249 29.1108C1.17488 31.8014 3.01037 34.3448 6.35066 36.272C13.3144 40.2901 24.6071 40.2897 31.5251 36.2724C34.7916 34.3752 36.5951 31.8711 36.6027 29.2208L36.6111 25.7686C35.7849 27.5698 34.1644 29.2147 31.8536 30.5566C24.7635 34.6743 13.1903 34.6743 6.05533 30.5573C3.68056 29.1873 2.02355 27.5067 1.19124 25.6666Z" fill="black"/>
<path d="M31.6092 15.537C38.6654 19.6081 38.7122 26.2129 31.697 30.287C24.677 34.3638 13.2669 34.3582 6.2107 30.2871C-0.850418 26.2131 -0.897148 19.6084 6.1228 15.5316C13.138 11.4575 24.5481 11.463 31.6092 15.537ZM8.46722 28.9771C14.2752 32.3281 23.6519 32.3252 29.4222 28.9741C35.1926 25.6229 35.162 20.1982 29.354 16.8472C23.5407 13.4932 14.1691 13.4932 8.39874 16.8443C2.62842 20.1954 2.65391 25.6231 8.46722 28.9771Z" fill="white"/>
<path d="M18.9708 33.6449C14.2993 33.6449 9.62282 32.6158 6.05533 30.5573C2.52515 28.5205 0.5789 25.7944 0.574714 22.8811C0.570528 19.9896 2.48557 17.2837 5.96666 15.2621C13.0537 11.1466 24.6269 11.1489 31.7649 15.2667C35.2928 17.3023 37.2375 20.0272 37.2417 22.9401C37.2459 25.8317 35.3324 28.5364 31.8536 30.5565C28.3085 32.6154 23.6423 33.6449 18.9708 33.6449ZM18.8403 12.791C14.2841 12.791 9.73547 13.7942 6.27949 15.801C2.99896 17.7065 1.19429 20.2206 1.19809 22.8804C1.2019 25.5619 3.03778 28.0961 6.36664 30.0169C13.3292 34.0349 24.6223 34.0349 31.5407 30.0176C34.8186 28.1136 36.6221 25.6007 36.6183 22.9413C36.6145 20.2601 34.7802 17.7263 31.4536 15.8071C27.9687 13.7965 23.4011 12.791 18.8403 12.791ZM18.9541 31.7907C15.1042 31.7907 11.2509 30.9432 8.31175 29.2473C5.39124 27.5622 3.78103 25.3046 3.77761 22.8907C3.77418 20.4919 5.35965 18.2488 8.24248 16.5747C14.0858 13.1811 23.626 13.1826 29.5096 16.577C32.429 18.2614 34.0384 20.5178 34.0418 22.931C34.0457 25.3282 32.4606 27.5702 29.5789 29.2435C26.6549 30.9417 22.8062 31.7907 18.9541 31.7907ZM18.8574 14.6448C15.1209 14.6448 11.3898 15.4676 8.55531 17.1136C5.87342 18.6716 4.39794 20.7229 4.40099 22.8895C4.40403 25.0721 5.90349 27.1382 8.62305 28.7069C14.3316 32.0008 23.5917 31.9993 29.266 28.7047C31.9468 27.1474 33.4215 25.0972 33.4185 22.9318C33.4154 20.7503 31.9164 18.6853 29.1983 17.1174C26.3414 15.4691 22.5965 14.6448 18.8574 14.6448Z" fill="black"/>
<path d="M43.7927 36.3297C43.3593 36.074 42.7588 36.1106 42.1011 36.4862C40.7801 37.248 39.7098 39.1054 39.7098 40.6237C39.715 41.3698 39.9813 41.8968 40.4093 42.1473L31.2099 36.8044C30.7818 36.554 30.5155 36.027 30.5103 35.2809C30.5103 33.7627 31.5806 31.9052 32.9015 31.1435C33.5594 30.7678 34.1599 30.7313 34.5931 30.9869L43.7927 36.3297Z" fill="white"/>
<path d="M40.4086 42.4589C40.3557 42.4589 40.3017 42.4456 40.2526 42.4167L40.2514 42.4163L31.0534 37.0738C30.5076 36.7549 30.2043 36.1189 30.1982 35.2832C30.1982 33.6608 31.3411 31.6834 32.7458 30.8731C33.4887 30.4477 34.2011 30.3932 34.7514 30.7182L43.9339 36.0512C43.9396 36.0546 43.9453 36.0577 43.951 36.0611C44.099 36.1486 44.1485 36.3389 44.0617 36.4873C43.9753 36.635 43.785 36.6871 43.6362 36.5992L43.6233 36.592C43.2751 36.3933 42.7899 36.4519 42.2555 36.7568C41.024 37.4673 40.0212 39.2023 40.0212 40.6238C40.0258 41.2285 40.2191 41.6749 40.5666 41.8781C40.715 41.9649 40.7648 42.1556 40.6784 42.3044C40.6202 42.4037 40.5159 42.4589 40.4086 42.4589ZM33.9591 31.1338C33.6892 31.1338 33.3817 31.2278 33.056 31.4139C31.8454 32.1123 30.8216 33.8835 30.8216 35.2809C30.8262 35.8857 31.0199 36.3321 31.3674 36.5353L39.4621 41.2365C39.421 41.0481 39.3993 40.8437 39.3978 40.6261C39.3978 39.0037 40.5407 37.0262 41.9454 36.216C42.1429 36.1033 42.3381 36.0166 42.5288 35.9561L34.4367 31.2564C34.2974 31.1746 34.1364 31.1338 33.9591 31.1338Z" fill="black"/>
<path d="M49.1193 38.022C48.496 37.6544 47.6325 37.7069 46.6867 38.2471C44.7871 39.3426 43.2479 42.0137 43.2479 44.197C43.2554 45.2699 43.6383 46.0277 44.2538 46.388L32.9554 39.826C32.3397 39.4659 31.9567 38.7081 31.9492 37.6352C31.9492 35.4518 33.4884 32.7807 35.388 31.6853C36.334 31.145 37.1976 31.0925 37.8206 31.4601L49.1193 38.022Z" fill="#2F8836"/>
<path d="M44.2532 46.6996C44.2003 46.6996 44.1462 46.6863 44.0971 46.6574L32.7987 40.0955C32.0574 39.6625 31.6452 38.7894 31.6372 37.6374C31.6372 35.3487 33.2497 32.5583 35.2321 31.4151C36.2566 30.8298 37.2324 30.7502 37.9791 31.1921L49.2562 37.7413C49.2634 37.7451 49.2703 37.7493 49.2775 37.7535C49.4255 37.841 49.475 38.0313 49.3882 38.1797C49.3018 38.3274 49.1116 38.3792 48.9628 38.2916L48.9453 38.2817C48.4003 37.9712 47.654 38.0542 46.8411 38.5177C45.0322 39.5612 43.5594 42.1092 43.5594 44.197C43.5659 45.118 43.8684 45.8015 44.4111 46.1189C44.5595 46.2056 44.6094 46.3963 44.523 46.5451C44.4652 46.6444 44.3605 46.6996 44.2532 46.6996ZM36.9097 31.5346C36.4975 31.5346 36.0321 31.6761 35.5423 31.9559C33.7334 32.999 32.2606 35.5469 32.2606 37.6351C32.2671 38.5565 32.5696 39.2396 33.1123 39.557L43.1096 45.363C42.998 45.0194 42.9391 44.6285 42.936 44.1993C42.936 41.9109 44.5485 39.1205 46.5309 37.9769C46.9157 37.7573 47.2939 37.6089 47.6555 37.5328L37.6639 31.7298C37.4428 31.5993 37.1882 31.5346 36.9097 31.5346Z" fill="black"/>
<path d="M46.6859 38.2502C48.5699 37.1633 50.1233 38.048 50.1294 40.2278C50.1356 42.3911 48.5923 45.0624 46.7083 46.1494C44.81 47.2446 43.2566 46.36 43.2505 44.1967C43.2443 42.0169 44.7876 39.3455 46.6859 38.2502Z" fill="white"/>
<path d="M45.165 46.9336C44.7806 46.9336 44.4228 46.8427 44.1043 46.6592C43.3561 46.2284 42.942 45.3543 42.939 44.1973C42.9325 41.9154 44.5435 39.1262 46.5304 37.9799C47.5439 37.3954 48.5178 37.3124 49.2706 37.7455C50.0222 38.1782 50.4382 39.0592 50.4412 40.2268C50.4477 42.4996 48.8432 45.2778 46.8642 46.4195C46.2717 46.7612 45.6936 46.9336 45.165 46.9336ZM46.8418 38.5203C45.0279 39.5669 43.5567 42.1129 43.5624 44.1958C43.565 45.121 43.868 45.8037 44.4152 46.1188C44.9705 46.4393 45.7301 46.3533 46.5529 45.8791C48.3283 44.8549 49.8235 42.2671 49.8178 40.2283C49.8152 39.2929 49.5103 38.6029 48.9596 38.2859C48.4059 37.967 47.6547 38.0511 46.8418 38.5203Z" fill="black"/>
<path d="M22.1472 7.17346L30.1482 8.97768L30.2337 19.5765C30.2399 20.284 29.7474 21.1447 29.1311 21.5037L15.4616 29.4673C14.8452 29.8264 14.3428 29.5453 14.3366 28.8378L14.2515 18.2877L22.1472 7.17346Z" fill="white"/>
<path d="M30.2314 19.5742C30.241 20.2847 29.7462 21.1447 29.1289 21.5064L15.4624 29.4686C14.8452 29.8248 14.3436 29.5457 14.3342 28.8405L14.3115 25.9329C22.3515 25.7448 28.7854 19.5898 28.747 13.0368C28.7373 11.3877 28.3206 9.82241 27.5679 8.39465L30.1466 8.97629L30.2314 19.5742Z" fill="#E9EDF4"/>
<path d="M14.6647 29.5477L9.03879 26.3408C8.83976 26.2235 8.71372 25.9819 8.71163 25.6267L8.62598 15.0792L14.2519 18.2859L14.3376 28.8388C14.3397 29.1886 14.4657 29.436 14.6647 29.5477Z" fill="#2F8836"/>
<path d="M14.6642 29.8593C14.6124 29.8593 14.5599 29.8464 14.512 29.8193C14.5093 29.8178 14.5067 29.8163 14.504 29.8148L8.88408 26.6119C8.57315 26.4281 8.40227 26.0798 8.39961 25.6285L8.31398 15.0817C8.31284 14.9702 8.37183 14.8667 8.46811 14.81C8.56402 14.7536 8.68352 14.7533 8.78018 14.8081L14.4062 18.0148C14.5025 18.0699 14.5626 18.1719 14.5634 18.2831L14.649 28.8359C14.6505 29.0514 14.7122 29.2146 14.8145 29.2744L14.8191 29.2767C14.9683 29.3619 15.0204 29.5518 14.9359 29.7014C14.8785 29.8026 14.7731 29.8593 14.6642 29.8593ZM8.94193 15.6179L9.02299 25.6239C9.02451 25.8481 9.08616 26.0072 9.19729 26.0726L14.0252 28.8245L13.9415 18.4676L8.94193 15.6179Z" fill="black"/>
<path d="M14.9553 29.9362C14.797 29.9362 14.6474 29.8982 14.5127 29.8217C14.2022 29.6447 14.029 29.2965 14.0248 28.8406L13.94 18.2904C13.9392 18.2245 13.9594 18.1606 13.9974 18.1073L21.8932 6.99308C21.9662 6.88994 22.0926 6.84009 22.2159 6.86939L30.2167 8.67368C30.3578 8.70565 30.4587 8.83048 30.4598 8.9751L30.5455 19.574C30.5527 20.3919 30.0005 21.3582 29.2884 21.7734L15.6187 29.7368C15.3907 29.8696 15.1654 29.9362 14.9553 29.9362ZM14.5641 18.3859L14.6482 28.8353C14.6501 29.0564 14.7133 29.2181 14.8214 29.2798C14.9306 29.3422 15.1076 29.3125 15.3051 29.1979L28.9745 21.2345C29.4932 20.9319 29.927 20.1742 29.9221 19.5794L29.8384 9.22742L22.2813 7.52322L14.5641 18.3859Z" fill="black"/>
<path d="M22.1158 4.36292C22.3388 4.23298 22.5631 4.18019 22.7554 4.22427L32.7022 6.46357C33.2032 6.57514 33.3291 7.29618 32.9807 8.07284C32.7696 8.54733 32.43 8.93291 32.0841 9.13441C31.8654 9.26185 31.6441 9.31562 31.4514 9.27154L30.1481 8.97767L22.1471 7.17345L14.2514 18.2877L12.8376 20.2777C12.6445 20.5495 12.4219 20.7559 12.2011 20.8845C11.8573 21.0848 11.5176 21.0968 11.2994 20.8745C10.9412 20.5135 11.0533 19.6538 11.5436 18.9607L21.4829 4.96559C21.6709 4.69997 21.8927 4.49286 22.1158 4.36292Z" fill="white"/>
<path d="M15.4007 0.531784C15.175 0.662812 14.9551 0.867059 14.7642 1.13337L5.9162 15.7494C5.42747 16.4459 5.31909 17.3039 5.67251 17.6625C5.71244 17.702 5.7523 17.7298 5.79202 17.758L11.3553 20.9256C11.3384 20.9086 11.3213 20.8919 11.2985 20.875C10.9394 20.5163 11.0533 19.6526 11.5422 18.9618L21.482 4.96712C21.6731 4.70108 21.8927 4.49106 22.113 4.36006C22.1353 4.34781 22.1574 4.33942 22.1798 4.32855L15.4625 0.500854C15.442 0.51144 15.4213 0.519547 15.4007 0.531784Z" fill="#2F8836"/>
<path d="M22.7579 4.2266L32.7023 6.46407C32.7591 6.47476 32.8046 6.49707 32.8556 6.51936L27.2297 3.31271C27.1843 3.28489 27.1332 3.26811 27.0765 3.25164L16.0399 0.392575C15.8651 0.35284 15.6629 0.395606 15.4624 0.500875L22.1796 4.32857C22.3829 4.22879 22.5841 4.18686 22.7579 4.2266Z" fill="#2F8836"/>
<path d="M11.702 21.3483C11.4615 21.3483 11.2435 21.2626 11.0768 21.0929C10.6113 20.6237 10.7042 19.6075 11.2891 18.7805L21.2285 4.78539C21.4386 4.48854 21.6913 4.24916 21.9588 4.09351C22.2595 3.91882 22.5601 3.85984 22.825 3.92073L32.7709 6.15963C33.0266 6.21634 33.236 6.38379 33.3596 6.6304C33.5613 7.03228 33.526 7.61913 33.2649 8.20026C33.0343 8.72012 32.6605 9.1593 32.2411 9.40401C31.9447 9.57717 31.6486 9.6373 31.3818 9.57527L22.2812 7.52322L13.0919 20.4581C12.8784 20.7584 12.6245 20.9989 12.3578 21.1542C12.1351 21.2839 11.9102 21.3483 11.702 21.3483ZM22.2724 4.6324C22.0841 4.742 21.8941 4.9243 21.7374 5.14579L11.7979 19.1409C11.374 19.74 11.3021 20.4345 11.5205 20.6549C11.6705 20.8079 11.9361 20.6785 12.0442 20.6153C12.2348 20.5045 12.4213 20.3253 12.5838 20.0969L21.893 6.99308C21.9661 6.88995 22.0924 6.84009 22.2157 6.8694L31.52 8.96749C31.6284 8.99109 31.7719 8.9557 31.9268 8.86512C32.2316 8.68777 32.519 8.34412 32.6955 7.94604C32.914 7.45929 32.8896 7.08404 32.8021 6.90974C32.7492 6.80432 32.6811 6.77844 32.6347 6.76817L22.6869 4.5285C22.5769 4.5049 22.4308 4.54068 22.2724 4.6324Z" fill="black"/>
<path d="M11.3261 21.2306C11.285 21.2306 11.2427 21.22 11.2012 21.1964L5.63803 18.0289C5.55811 17.9744 5.50636 17.9364 5.45346 17.8839C4.9884 17.4127 5.08088 16.3973 5.66087 15.5704L14.4974 0.971996C14.7223 0.656502 14.9761 0.418264 15.2441 0.262229C15.2566 0.255379 15.2977 0.234067 15.3065 0.230261C15.3978 0.187257 15.5287 0.180026 15.617 0.229881L22.3345 4.05768C22.4353 4.11514 22.4959 4.22437 22.4917 4.34044C22.4871 4.45652 22.4186 4.56041 22.3136 4.61027C22.089 4.737 21.8984 4.92196 21.7351 5.14916L11.7965 19.142C11.3717 19.7422 11.2998 20.4352 11.519 20.654C11.6294 20.7644 11.6697 20.9646 11.575 21.089C11.5095 21.175 11.4201 21.2306 11.3261 21.2306ZM15.4644 0.860869C15.3049 0.971996 15.1523 1.12727 15.0176 1.31489L6.18301 15.9106C5.7503 16.529 5.67799 17.2236 5.89454 17.4435C5.91814 17.4668 5.9444 17.4839 5.97065 17.5021L10.7792 20.2388C10.7815 19.7822 10.955 19.2516 11.2876 18.7816L21.2278 4.78685C21.3439 4.62511 21.4702 4.48087 21.6023 4.35833L15.4644 0.860869ZM15.4009 0.531675L15.4233 0.570112L15.4271 0.563262L15.4009 0.531675Z" fill="black"/>
<path d="M32.8559 6.83092C32.8144 6.83092 32.7722 6.82292 32.7322 6.80542C32.7284 6.80466 32.6378 6.76888 32.634 6.76812L22.6897 4.53074C22.6893 4.53074 22.6889 4.53074 22.6885 4.53036C22.5938 4.50828 22.4632 4.53683 22.3175 4.60838C22.2239 4.65366 22.1154 4.64986 22.0256 4.59962L15.3081 0.771827C15.2092 0.715503 15.149 0.609323 15.1509 0.495532C15.1528 0.381741 15.2168 0.277845 15.3176 0.224945C15.5924 0.0803279 15.8668 0.0342786 16.1092 0.0883199L27.1549 2.94984C27.2322 2.97191 27.3121 2.99741 27.3928 3.04689L33.0104 6.24826C33.1543 6.33046 33.2087 6.51048 33.1349 6.65852C33.0804 6.76736 32.9705 6.83092 32.8559 6.83092ZM22.8267 3.92258L30.8294 5.72307L27.0754 3.58349C27.0514 3.56865 27.0073 3.55609 26.9905 3.55115L16.8232 0.917206L22.1999 3.98119C22.4225 3.89937 22.636 3.8792 22.8267 3.92258Z" fill="black"/>
<path d="M24.2729 14.1712C24.798 13.8682 25.2251 14.1114 25.2268 14.7226L25.2464 23.7681L19.2583 27.2583L19.2388 18.1784C19.237 17.5672 19.6685 16.8285 20.1935 16.5255L24.2729 14.1712Z" fill="#2F8836"/>
<path d="M19.2584 27.5698C19.2047 27.5698 19.1514 27.5561 19.1035 27.5287C19.0064 27.4731 18.9467 27.3704 18.9467 27.2589L18.9273 18.1792C18.925 17.4614 19.4129 16.6162 20.0374 16.2558L24.1171 13.9012C24.4672 13.6991 24.8257 13.6755 25.1013 13.8338C25.3821 13.9952 25.5374 14.3107 25.5386 14.7217L25.558 23.7675C25.5583 23.8786 25.4994 23.9818 25.4035 24.0377L19.4155 27.5276C19.3668 27.5557 19.3128 27.5698 19.2584 27.5698ZM24.6983 14.3529C24.624 14.3529 24.5297 14.383 24.4288 14.4412L20.3491 16.7958C19.9148 17.0462 19.5491 17.6791 19.5506 18.1773L19.5689 26.7162L24.9342 23.5894L24.9152 14.7236C24.9144 14.5493 24.868 14.4188 24.7907 14.3742C24.7656 14.3598 24.7344 14.3529 24.6983 14.3529Z" fill="black"/>
<path d="M23.4657 19.2412C23.723 19.0927 23.9298 19.2155 23.9306 19.5076C23.9314 19.8032 23.726 20.1606 23.4688 20.309C23.213 20.4566 23.0033 20.3389 23.0024 20.0433C23.0016 19.7512 23.2099 19.3888 23.4657 19.2412Z" fill="black"/>
</svg>
