<svg width="113" height="119" viewBox="0 0 113 119" fill="none" xmlns="http://www.w3.org/2000/svg">
<g filter="url(#filter0_d_2210_2718)">
<path d="M83.9073 12.2397C78.1172 8.87668 70.0728 9.33764 61.2087 14.4589C43.5822 24.6333 29.3382 49.3009 29.4066 69.5301C29.4408 85.5939 49.6117 102.665 57.9288 109.05C58.0147 109.101 58.083 109.152 58.1681 109.203L48.5351 103.604C48.4675 103.57 48.3816 103.519 48.2966 103.45C39.9787 97.0657 19.8244 79.9947 19.7736 63.9479C19.7227 43.7016 33.95 19.034 51.5757 8.87669C60.4398 3.75537 68.4842 3.27744 74.291 6.64038L83.9073 12.2397Z" fill="#2F8836"/>
<path d="M58.1055 109.855C58.0178 109.855 57.9253 109.832 57.8345 109.778L48.2014 104.179C48.1511 104.155 48.018 104.079 47.8801 103.968C39.2548 97.3491 19.1611 80.1773 19.1076 63.9507C19.0572 43.5057 33.4727 18.5419 51.2426 8.30107C60.0382 3.22003 68.3422 2.4281 74.6241 6.06564L84.2409 11.6652C84.559 11.8502 84.6661 12.2567 84.4811 12.5739C84.2961 12.8904 83.8888 12.9999 83.5723 12.8141C77.7221 9.41676 69.8985 10.2071 61.541 15.0341C44.12 25.0907 30.0031 49.5369 30.0713 69.5283C30.1038 85.1674 49.847 102.008 58.3327 108.522C58.3586 108.538 58.383 108.555 58.4057 108.573L58.5031 108.629L58.4901 108.65C58.7027 108.874 58.8033 109.23 58.6507 109.486C58.5193 109.709 58.3213 109.855 58.1055 109.855ZM65.9031 5.1455C61.6237 5.1455 56.8591 6.59143 51.9079 9.45246C34.5048 19.4815 20.388 43.9276 20.4383 63.9467C20.4886 79.5841 40.2204 96.4136 48.7012 102.923C48.7142 102.93 48.857 103.022 48.87 103.03L51.1111 104.333C41.5495 96.0103 28.7682 82.4679 28.7406 69.5324C28.6724 49.1165 43.0879 24.1519 60.8756 13.8836C66.9871 10.3515 72.8699 8.89746 77.9898 9.56362L73.9571 7.21541C71.5684 5.83277 68.8518 5.1455 65.9031 5.1455Z" fill="black"/>
<path d="M61.2055 14.4658C78.838 4.2907 93.1697 12.4663 93.2271 32.7053C93.2726 48.7612 73.2786 89.0011 65.0011 104.968C64.0776 106.755 62.779 108.132 61.4768 108.883C60.1753 109.634 58.8708 109.76 57.9348 109.045C49.6046 102.663 29.4481 85.5922 29.4025 69.5363C29.3451 49.2973 43.5831 24.6351 61.2055 14.4658Z" fill="white"/>
<path d="M93.2323 32.7085C93.2656 48.7552 73.2832 89.0087 64.9995 104.97C64.0771 106.763 62.7795 108.128 61.481 108.879C60.1659 109.631 58.8682 109.767 57.9284 109.05C54.5125 106.438 49.1501 102.051 43.9746 96.6565C60.4903 91.4158 74.8202 77.3663 80.9347 58.0931C86.3655 40.9708 84.1113 23.473 76.1695 10.1064C86.2804 10.4308 93.1806 18.676 93.2323 32.7085Z" fill="#E9EDF4"/>
<path d="M59.3899 110.184C58.697 110.184 58.0641 109.981 57.5301 109.574C48.8886 102.952 28.7836 85.7971 28.7365 69.5381C28.6781 49.1125 43.0936 24.1487 60.8715 13.8901C69.6461 8.82933 77.9273 8.02928 84.1947 11.6368C90.4182 15.2192 93.8618 22.7012 93.891 32.7034C93.9364 48.8488 74.1137 88.8326 65.5907 105.273C64.6543 107.086 63.2749 108.612 61.8079 109.459C60.9705 109.941 60.1461 110.184 59.3899 110.184ZM75.5223 10.7426C71.2478 10.7426 66.4849 12.1861 61.5369 15.0423C44.1257 25.0883 30.0088 49.5336 30.0672 69.5349C30.111 85.2032 49.8526 102.016 58.3383 108.518C59.0053 109.029 60.0293 108.951 61.1425 108.307C62.3954 107.584 63.5865 106.256 64.4093 104.662C72.8885 88.3076 92.6057 48.5583 92.5603 32.7066C92.5343 23.1986 89.3276 16.1255 83.5309 12.789C81.1551 11.421 78.4531 10.7426 75.5223 10.7426Z" fill="black"/>
<path d="M62.0902 32.4668L77.5559 36.0556L77.61 55.0948C77.6139 56.4666 76.6509 58.1297 75.4539 58.8189L48.9059 74.1038C47.7086 74.7931 46.7394 74.2425 46.7355 72.8706L46.6816 53.9259L62.0902 32.4668Z" fill="#2F8836"/>
<path d="M77.6062 55.0897C77.6167 56.4676 76.6493 58.1293 75.4504 58.8235L48.9081 74.1059C47.7094 74.7896 46.7418 74.2426 46.7315 72.8753L46.7207 67.2378C62.2844 66.9643 74.7985 56.6148 74.7985 43.9093C74.7985 40.7118 74.0098 37.6722 72.569 34.8955L77.5536 36.0524L77.6062 55.0897Z" fill="#2F8836"/>
<path d="M47.9293 75.0636C47.6079 75.0636 47.3045 74.9865 47.0367 74.8324C46.4249 74.4802 46.0744 73.7654 46.0711 72.872L46.0176 53.9272C46.0176 53.7877 46.0614 53.6514 46.1425 53.5378L61.5512 32.0785C61.7086 31.861 61.9829 31.7612 62.2425 31.8188L77.7079 35.4077C78.0082 35.4774 78.2208 35.7444 78.2224 36.0535L78.2759 55.0932C78.2808 56.6982 77.1886 58.5872 75.7865 59.3945L49.2372 74.6798C48.7958 74.9346 48.3463 75.0636 47.9293 75.0636ZM47.3483 54.139L47.4018 72.8688C47.4018 73.2696 47.5138 73.5731 47.7004 73.681C47.8887 73.7897 48.2165 73.7354 48.5751 73.5276L75.1244 58.2423C76.116 57.6711 76.9501 56.2308 76.9452 55.0973L76.8933 36.5834L62.3723 33.2136L47.3483 54.139Z" fill="black"/>
<path d="M83.9891 34.7624C83.5167 35.8398 82.7231 36.766 81.816 37.2764C81.1543 37.6734 80.4553 37.8057 79.8315 37.6545L62.5394 33.6283L44.7744 58.3711C44.3208 58.9948 43.7731 59.5052 43.2061 59.8454C42.6958 60.129 42.2044 60.2613 41.713 60.2613C41.146 60.2613 40.5978 60.0533 40.201 59.6375C39.1426 58.5601 39.3128 56.3863 40.5978 54.5907L59.9879 27.5797C60.4225 26.956 60.9707 26.4456 61.5377 26.1243C62.0291 25.8407 62.5394 25.6895 63.0308 25.6895C63.2006 25.6895 63.3708 25.7084 63.5411 25.7462L82.7609 30.2071C83.3847 30.3394 83.895 30.7552 84.1972 31.3411C84.6319 32.2485 84.5751 33.496 83.9891 34.7624Z" fill="white"/>
<path d="M41.713 60.9259C40.9373 60.9259 40.2297 60.6314 39.7201 60.0959C38.443 58.7976 38.5842 56.262 40.0577 54.2042L59.4487 27.1924C59.9258 26.506 60.5538 25.9177 61.2111 25.5461C62.0128 25.0828 62.8777 24.9148 63.6859 25.0982L82.913 29.5601C83.7017 29.7273 84.3898 30.2661 84.789 31.0353C85.3262 32.1607 85.2515 33.6115 84.5959 35.0355C84.0604 36.251 83.1678 37.2791 82.1422 37.856C81.3503 38.3298 80.4691 38.4921 79.6755 38.3006L62.8209 34.3767L45.3156 58.7595C44.8093 59.454 44.1991 60.0253 43.5484 60.4156C42.9252 60.7629 42.3313 60.9259 41.713 60.9259ZM63.0319 26.3543C62.6635 26.3543 62.2627 26.4735 61.8716 26.6999C61.3783 26.979 60.906 27.4253 60.5344 27.9592L41.1385 54.9791C40.0544 56.4924 39.8516 58.3335 40.676 59.1709C41.192 59.7113 42.0586 59.7226 42.883 59.265C43.3634 58.9761 43.8389 58.5282 44.2381 57.9797L61.9998 33.2407C62.1572 33.0232 62.4298 32.925 62.6911 32.981L79.9822 37.0072C80.4382 37.1168 80.9673 37.0097 81.4736 36.707C82.259 36.2648 82.965 35.442 83.3804 34.4959C83.382 34.4919 83.3837 34.4878 83.3853 34.4838C83.8721 33.4338 83.9516 32.366 83.5979 31.6276C83.3902 31.2268 83.0412 30.946 82.6242 30.8576L63.3906 26.394C63.2753 26.3681 63.1536 26.3543 63.0319 26.3543Z" fill="black"/>
<path d="M66.0033 49.1095C66.996 48.5362 67.8036 48.9964 67.8069 50.1528L67.8439 63.1965L56.5214 69.7347L56.4844 56.6911C56.4811 55.5347 57.2969 54.137 58.2897 53.5637L66.0033 49.1095Z" fill="white"/>
<path d="M56.523 70.3996C56.4078 70.3996 56.2942 70.3704 56.1919 70.3111C55.9858 70.1927 55.8593 69.9744 55.8576 69.7367L55.8203 56.6925C55.8171 55.3098 56.7551 53.6821 57.9576 52.9884L65.6708 48.5346C66.354 48.1386 67.06 48.0923 67.6085 48.4064C68.1554 48.7212 68.4702 49.3565 68.4734 50.1509L68.5108 63.1951C68.5108 63.4328 68.3842 63.6535 68.1781 63.772L56.8557 70.3103C56.7518 70.3704 56.6382 70.3996 56.523 70.3996ZM66.8068 49.5277C66.6948 49.5277 66.5358 49.5699 66.3362 49.6851L58.6229 54.139C57.8359 54.5942 57.1478 55.7853 57.151 56.6892L57.1851 68.5853L67.18 62.8137L67.1427 50.1541C67.1427 49.7987 67.0405 49.6129 66.9464 49.5586C66.9123 49.5399 66.8668 49.5277 66.8068 49.5277Z" fill="black"/>
<path d="M64.4776 56.8276C64.964 56.5467 65.355 56.779 65.3566 57.3317C65.3582 57.8909 64.9697 58.567 64.4833 58.8479C63.9996 59.1272 63.6032 58.9044 63.6016 58.3452C63.6 57.7925 63.9939 57.1069 64.4776 56.8276Z" fill="black"/>
<path d="M100.559 64.5743C97.9732 63.0693 94.3937 63.2843 90.4447 65.5619C82.5938 70.0971 76.2472 81.0888 76.2741 90.1187C76.2876 94.6001 77.8657 97.7511 80.4178 99.236L76.5521 96.9793C74.0068 95.4945 72.4217 92.3434 72.4083 87.862C72.3816 78.8321 78.7281 67.8404 86.579 63.312C90.5279 61.0276 94.1075 60.8126 96.6932 62.3176L100.559 64.5743Z" fill="#2F8836"/>
<path d="M80.4171 99.7347C80.3319 99.7347 80.2455 99.7128 80.1664 99.6671L80.1652 99.6665L76.3008 97.41C73.482 95.7657 71.9217 92.3754 71.9083 87.8636C71.8815 78.6902 78.3505 67.483 86.3286 62.8805C90.3159 60.5759 94.0841 60.2223 96.9431 61.8874L100.809 64.1439C101.047 64.2826 101.128 64.5881 100.989 64.8261C100.851 65.064 100.546 65.1425 100.307 65.0056C97.7707 63.5274 94.3567 63.881 90.6932 65.9945C82.9901 70.4443 76.7451 81.2656 76.7731 90.1171C76.7853 94.2577 78.163 97.3394 80.6532 98.7969L80.6654 98.8036C80.6666 98.8042 80.6666 98.8048 80.6678 98.8054C80.9064 98.9436 80.9867 99.2497 80.848 99.487C80.7555 99.6465 80.5887 99.7347 80.4171 99.7347ZM92.957 61.8508C91.0888 61.8508 89.0026 62.4862 86.8277 63.7441C79.1245 68.1871 72.8795 79.006 72.9063 87.8612C72.9185 92.0048 74.3023 95.0902 76.8023 96.5489L77.4096 96.9037C76.3495 95.1389 75.7836 92.8324 75.7751 90.1201C75.7471 80.9504 82.2148 69.7402 90.1942 65.131C92.6175 63.7331 94.9714 63.0607 97.0636 63.1118L96.4416 62.7485C95.4107 62.1484 94.235 61.8508 92.957 61.8508Z" fill="black"/>
<path d="M90.4417 65.5631C98.2927 61.0284 104.677 64.6679 104.702 73.6981C104.728 82.7184 98.3853 93.7086 90.5343 98.2432C82.6831 102.778 76.2991 99.1385 76.2735 90.1182C76.2479 81.088 82.5905 70.0978 90.4417 65.5631Z" fill="white"/>
<path d="M86.6101 93.6068C85.6936 93.6068 84.844 93.392 84.0906 92.9581C82.2893 91.9223 81.2937 89.7839 81.2852 86.9358C81.2694 81.258 85.2737 74.3186 90.2103 71.4669C92.7017 70.0265 95.0739 69.808 96.8849 70.8498C98.6863 71.8862 99.6831 74.0271 99.6916 76.8782C99.7074 82.553 95.7031 89.4899 90.7665 92.341C89.3096 93.1826 87.8953 93.6068 86.6101 93.6068ZM94.3631 71.1992C93.2543 71.1992 92.0092 71.5789 90.7093 72.3299C86.0478 75.0227 82.2674 81.5738 82.2832 86.9334C82.2893 89.4102 83.1084 91.2432 84.5872 92.0939C86.0806 92.9526 88.0974 92.7317 90.2675 91.4781C94.929 88.7858 98.7094 82.2378 98.6936 76.8806C98.6875 74.4002 97.8684 72.5654 96.3884 71.714C95.7908 71.3702 95.1067 71.1992 94.3631 71.1992Z" fill="black"/>
<path d="M104.701 73.6979C104.731 82.7164 98.3863 93.7072 90.5364 98.2434C84.3951 101.793 79.1498 100.335 77.1484 95.2133C77.1903 95.2373 77.2381 95.2551 77.2858 95.2791C85.6078 99.0442 95.7399 94.5977 99.9217 85.3521C103.53 77.3674 101.529 68.4146 95.5546 63.6992C100.889 62.9819 104.683 66.7412 104.701 73.6979Z" fill="#E9EDF4"/>
<path d="M84.1533 100.7C82.7123 100.7 81.3771 100.362 80.1953 99.6831C77.357 98.0498 75.7869 94.654 75.7735 90.1203C75.748 80.9487 82.2157 69.7391 90.1914 65.1323C94.1617 62.8393 97.9213 62.4821 100.777 64.1252C103.616 65.7585 105.187 69.1585 105.201 73.6978C105.226 82.8638 98.7587 94.0686 90.7829 98.6753C88.4546 100.021 86.1981 100.7 84.1533 100.7ZM90.6904 65.9953C82.9898 70.4432 76.746 81.2639 76.7715 90.1178C76.7825 94.2804 78.1761 97.3706 80.6931 98.8184C83.2283 100.277 86.6362 99.9205 90.2839 97.8124C97.9846 93.3645 104.228 82.548 104.203 73.7002C104.192 69.5316 102.798 66.4383 100.28 64.9893C97.7424 63.5288 94.3381 63.8878 90.6904 65.9953Z" fill="black"/>
<path d="M90.4999 86.617C90.2249 86.617 90.0021 86.3948 90.0009 86.1198L89.9766 77.6901C89.9766 77.415 90.1993 77.191 90.4744 77.1904C90.7494 77.1904 90.9734 77.4126 90.9746 77.6876L90.9989 86.1173C90.9989 86.3924 90.775 86.6164 90.4999 86.617Z" fill="black"/>
<path d="M86.8212 84.5195C86.6495 84.5195 86.4816 84.43 86.3891 84.2706C86.2515 84.0321 86.3331 83.7272 86.5716 83.5896L93.9048 79.3541C94.1433 79.2165 94.4476 79.2975 94.5863 79.536C94.7239 79.7746 94.6423 80.0795 94.4038 80.217L87.0707 84.4526C86.9916 84.4982 86.9064 84.5195 86.8212 84.5195Z" fill="black"/>
</g>
<defs>
<filter id="filter0_d_2210_2718" x="-4" y="0.5" width="121" height="121" filterUnits="userSpaceOnUse" color-interpolation-filters="sRGB">
<feFlood flood-opacity="0" result="BackgroundImageFix"/>
<feColorMatrix in="SourceAlpha" type="matrix" values="0 0 0 0 0 0 0 0 0 0 0 0 0 0 0 0 0 0 127 0" result="hardAlpha"/>
<feOffset dy="4"/>
<feGaussianBlur stdDeviation="2"/>
<feComposite in2="hardAlpha" operator="out"/>
<feColorMatrix type="matrix" values="0 0 0 0 0 0 0 0 0 0 0 0 0 0 0 0 0 0 0.2 0"/>
<feBlend mode="normal" in2="BackgroundImageFix" result="effect1_dropShadow_2210_2718"/>
<feBlend mode="normal" in="SourceGraphic" in2="effect1_dropShadow_2210_2718" result="shape"/>
</filter>
</defs>
</svg>
