<svg width="45" height="45" viewBox="0 0 45 45" fill="none" xmlns="http://www.w3.org/2000/svg">
<path d="M27.2394 12.9281L38.4025 15.4273L38.5219 29.0293C38.5305 30.0094 37.8434 31.2015 36.9835 31.6989L17.9116 42.73C17.0515 43.2275 16.3505 42.8382 16.3419 41.8581L16.2231 28.3236L27.2394 12.9281Z" fill="white"/>
<path d="M38.5193 29.0261C38.5327 30.0104 37.8424 31.2017 36.9811 31.7026L17.9133 42.7319C17.0522 43.2254 16.3524 42.8387 16.3392 41.8619L16.3076 37.8343C27.5251 37.5738 36.5019 30.1273 36.4483 21.0501C36.4348 18.7658 35.8534 16.5975 34.8031 14.6198L38.401 15.4254L38.5193 29.0261Z" fill="#E9EDF4"/>
<path d="M16.8 42.8416L6.366 36.9367C6.08831 36.7743 5.91246 36.4396 5.90955 35.9476L5.79004 22.4167L16.224 28.3212L16.3436 41.8597C16.3465 42.3441 16.5224 42.6868 16.8 42.8416Z" fill="#F11B21"/>
<path d="M16.8 43.1003C16.757 43.1003 16.714 43.0899 16.6736 43.0674C16.6704 43.0659 16.6679 43.064 16.6647 43.0624L6.23849 37.1621C5.86125 36.9412 5.65399 36.5112 5.65083 35.9489L5.53077 22.4191C5.53014 22.3268 5.57879 22.2409 5.65841 22.1938C5.73866 22.1474 5.83724 22.1464 5.91749 22.1916L16.3519 28.096C16.4322 28.1415 16.4821 28.2265 16.4834 28.3191L16.6028 41.8574C16.6047 42.2226 16.721 42.4968 16.9206 42.6122L16.9276 42.6163C17.0514 42.6864 17.0957 42.8441 17.0255 42.9682C16.9781 43.0529 16.8903 43.1003 16.8 43.1003ZM6.05271 22.863L6.16898 35.9454C6.17088 36.3182 6.28714 36.5905 6.49693 36.7134L16.1074 42.1522C16.0929 42.0596 16.0853 41.9623 16.0847 41.8612L15.9671 28.4729L6.05271 22.863Z" fill="black"/>
<path d="M17.2054 43.2065C17.0127 43.2065 16.8326 43.1607 16.6714 43.0688C16.2967 42.8549 16.0882 42.4255 16.0832 41.8603L15.9644 28.3261C15.9644 28.2714 15.9808 28.2177 16.013 28.1731L27.0288 12.7774C27.0895 12.6924 27.1969 12.6516 27.2955 12.6756L38.4585 15.1751C38.576 15.2013 38.6601 15.3049 38.6613 15.4253L38.7808 29.0271C38.7902 30.1045 38.0579 31.3765 37.1132 31.9231L18.0414 42.9541C17.7513 43.1218 17.467 43.2065 17.2054 43.2065ZM16.4831 28.406L16.6013 41.8558C16.6045 42.2293 16.7201 42.5004 16.928 42.6192C17.1403 42.7399 17.4506 42.6978 17.7823 42.5061L36.8541 31.4751C37.6389 31.0208 38.2708 29.9247 38.2626 29.0316L38.1451 15.6351L27.3498 13.2181L16.4831 28.406Z" fill="black"/>
<path d="M27.1958 9.03501C27.5071 8.85501 27.8199 8.78189 28.0882 8.84295L41.9663 11.9449C42.6652 12.0994 42.8409 13.0982 42.3549 14.174C42.0603 14.8313 41.5864 15.3654 41.1039 15.6445C40.7987 15.8211 40.49 15.8955 40.2211 15.8345L38.4026 15.4274L27.2395 12.9282L16.2232 28.3237L14.2507 31.0804C13.9813 31.4568 13.6708 31.7427 13.3627 31.9209C12.883 32.1984 12.409 32.215 12.1046 31.907C11.6047 31.407 11.7612 30.2161 12.4452 29.256L26.3128 9.86984C26.5751 9.50189 26.8846 9.21501 27.1958 9.03501Z" fill="white"/>
<path d="M15.2422 2.2655C14.9271 2.447 14.6204 2.72993 14.354 3.09883L2.00914 23.3451C1.32726 24.31 1.17604 25.4984 1.66914 25.9952C1.72484 26.0498 1.78046 26.0884 1.83588 26.1274L12.1825 31.9778C12.1589 31.9543 12.135 31.9312 12.1032 31.9077C11.6022 31.4109 11.7611 30.2144 12.4432 29.2576L26.3114 9.87197C26.5781 9.50345 26.8845 9.21251 27.1919 9.03105C27.223 9.01409 27.2538 9.00246 27.285 8.98741L15.3284 2.22266C15.2997 2.23732 15.2708 2.24855 15.2422 2.2655Z" fill="#F11B21"/>
<path d="M11.4854 26.979C12.5771 26.9726 13.5538 26.8016 14.4314 26.4884L12.4464 29.2578C11.7624 30.2161 11.6027 31.4118 12.1058 31.9049C12.1363 31.9272 12.1592 31.9572 12.1821 31.9796L1.8371 26.1246C1.78376 26.0874 1.73061 26.0501 1.66956 25.9904C1.18158 25.4972 1.33372 24.3091 2.01017 23.3433L2.04776 23.283C4.84604 26.047 7.31635 27.0032 11.4854 26.979Z" fill="#F11B21"/>
<path d="M27.2903 8.98753C27.26 9.00275 27.2297 9.01041 27.1919 9.03319C26.8897 9.21529 26.5806 9.50264 26.3176 9.87237L20.7163 17.6974C21.4484 14.5672 21.6623 11.0116 21.6424 7.64516C21.6385 6.99142 21.5968 6.35295 21.5174 5.72217L27.2903 8.98753Z" fill="#F11B21"/>
<path d="M28.092 8.84617L41.9667 11.9455C42.0459 11.9603 42.1094 11.9913 42.1806 12.0221L31.7466 6.11766C31.6833 6.07912 31.6119 6.05588 31.5329 6.03307L16.1344 2.07266C15.8905 2.01761 15.6083 2.07685 15.3286 2.22267L27.2852 8.98742C27.5689 8.84921 27.8495 8.79112 28.092 8.84617Z" fill="#F11B21"/>
<path d="M12.6649 32.3929C12.3781 32.3929 12.1203 32.2912 11.9206 32.0886C11.3285 31.4959 11.4656 30.1851 12.2346 29.1058L26.1028 9.71898C26.3808 9.32911 26.7138 9.01505 27.0664 8.81095C27.4449 8.592 27.8184 8.51554 28.1457 8.59042L42.0227 11.6924C42.333 11.7609 42.5769 11.9559 42.7273 12.2564C42.9838 12.7672 42.9326 13.5242 42.5908 14.2806C42.2868 14.959 41.7794 15.5526 41.2335 15.8686C40.86 16.0847 40.4878 16.1599 40.1643 16.0869L27.3501 13.2181L14.4614 31.2312C14.1796 31.6251 13.8447 31.9411 13.4927 32.1449C13.2065 32.3104 12.9234 32.3929 12.6649 32.3929ZM27.3255 9.25896C27.0367 9.42642 26.7593 9.68928 26.5236 10.0201L12.6561 29.4066C11.9977 30.3301 11.9338 31.3692 12.2883 31.724C12.5828 32.0232 13.0472 31.8049 13.2336 31.6969C13.5218 31.5297 13.8011 31.2647 14.0406 30.9297L27.0291 12.7773C27.0898 12.6924 27.1972 12.6516 27.2958 12.6756L40.2774 15.582C40.4771 15.6266 40.7153 15.57 40.9744 15.4206C41.4294 15.1571 41.8578 14.6515 42.1188 14.0683C42.393 13.4611 42.4486 12.8557 42.2647 12.4883C42.1851 12.3296 42.0663 12.232 41.9109 12.1976L28.032 9.0953C27.8335 9.04949 27.5852 9.10889 27.3255 9.25896Z" fill="black"/>
<path d="M12.1827 32.2365C12.1391 32.2365 12.0955 32.2258 12.055 32.203L1.7084 26.3526C1.61868 26.2913 1.55359 26.2446 1.48787 26.1798C0.897685 25.5849 1.03481 24.2753 1.7975 23.1957L14.1333 2.96436C14.4253 2.55806 14.7602 2.24464 15.1128 2.04117C15.1248 2.03453 15.1797 2.00705 15.1867 2.00357C15.2625 1.9685 15.3838 1.95618 15.4565 1.99725L27.4126 8.76199C27.496 8.80938 27.5465 8.89911 27.5434 8.99484C27.5408 9.09089 27.4852 9.17746 27.3987 9.21979L27.2369 9.07225L27.2268 9.08994L27.3235 9.25391C27.0435 9.41947 26.7661 9.6855 26.5216 10.0236L12.6541 29.4082C11.9944 30.3336 11.9305 31.3714 12.2857 31.7237C12.3008 31.7313 12.3337 31.7629 12.3659 31.7948C12.4569 31.8861 12.467 32.0315 12.3887 32.1345C12.3381 32.2008 12.261 32.2365 12.1827 32.2365ZM15.3251 2.51762C15.0521 2.68538 14.7899 2.93751 14.5643 3.2503L2.23035 23.4797C1.56686 24.42 1.50177 25.4591 1.85311 25.813C1.89418 25.8531 1.93778 25.8828 1.98138 25.9128L11.5792 31.3392C11.4775 30.6827 11.7087 29.842 12.2332 29.1071L26.1014 9.7212C26.3093 9.43401 26.5405 9.18946 26.7819 8.99989L15.3251 2.51762ZM15.2423 2.26549L15.2739 2.32015L15.2834 2.30309L15.2423 2.26549Z" fill="black"/>
<path d="M42.1806 12.2807C42.1465 12.2807 42.1117 12.274 42.0782 12.2598C41.9948 12.2232 41.9575 12.2071 41.919 12.1998L28.0357 9.09845C28.035 9.09845 28.035 9.09845 28.0344 9.09845C27.8606 9.05833 27.6407 9.1013 27.3981 9.22009C27.3223 9.25706 27.2319 9.25421 27.1573 9.21251L15.2013 2.44777C15.1191 2.40101 15.0686 2.31287 15.0698 2.21808C15.0717 2.1233 15.1248 2.03673 15.2095 1.99313C15.5551 1.81272 15.8938 1.75332 16.1921 1.8203L31.5977 5.78259C31.6899 5.80882 31.7885 5.83978 31.8814 5.89665L42.3082 11.7966C42.4277 11.8643 42.4738 12.0137 42.4125 12.1369C42.3676 12.2276 42.276 12.2807 42.1806 12.2807ZM28.1494 8.59357L40.4543 11.3423L31.6191 6.34277C31.5774 6.31749 31.5288 6.30138 31.4618 6.28179L16.0701 2.32329C16.0531 2.3195 16.0354 2.31666 16.0171 2.31445L27.2989 8.69752C27.6028 8.57272 27.8929 8.53575 28.1494 8.59357Z" fill="black"/>
<path d="M42.9836 19.7755C42.6046 19.5573 42.0783 19.5884 41.494 19.9224L26.0131 28.8473C24.8534 29.5153 23.9212 31.1319 23.9257 32.4591L23.948 41.0722C23.948 41.7313 24.1844 42.1945 24.559 42.4127L22.6724 41.3171C22.2978 41.0989 22.0659 40.6358 22.0614 39.9766L22.0391 31.3635C22.0346 30.0364 22.9668 28.4242 24.1265 27.7562L39.6074 18.8269C40.1916 18.4929 40.718 18.4617 41.097 18.6844L42.9836 19.7755Z" fill="#F11B21"/>
<path d="M24.5594 42.6715C24.5151 42.6715 24.4703 42.6605 24.4292 42.6365L22.5424 41.5408C22.0703 41.2662 21.8075 40.7111 21.8024 39.9781L21.7803 31.3641C21.7759 29.9342 22.7496 28.2508 23.9976 27.532L39.4777 18.6027C40.1298 18.2305 40.7504 18.1809 41.2281 18.4609L43.113 19.5515C43.2369 19.6229 43.2792 19.7812 43.2078 19.9051C43.1358 20.0289 42.9778 20.07 42.8539 19.9998C42.5418 19.8194 42.1045 19.8719 41.6224 20.1471L26.1429 29.0716C25.0586 29.6959 24.1802 31.2153 24.1846 32.4582L24.2074 41.0716C24.2074 41.6106 24.378 42.0071 24.6889 42.1885L24.6895 42.1891C24.8134 42.2611 24.8551 42.4194 24.783 42.5429C24.735 42.6254 24.6485 42.6715 24.5594 42.6715ZM40.5444 18.8002C40.303 18.8002 40.0281 18.8845 39.7355 19.0517L24.256 27.9807C23.1723 28.6046 22.294 30.1218 22.2984 31.3625L22.3206 39.9759C22.3237 40.5171 22.495 40.9146 22.8027 41.0934L23.7505 41.6438C23.7101 41.4684 23.6892 41.2773 23.6892 41.0722L23.6665 32.4598C23.6621 31.0273 24.6358 29.3421 25.8844 28.623L41.3646 19.6981C41.5522 19.5913 41.7367 19.5108 41.9162 19.457L40.9677 18.9082C40.8445 18.8359 40.7017 18.8002 40.5444 18.8002Z" fill="black"/>
<path d="M41.4953 19.9235C42.6514 19.257 43.5913 19.7918 43.5951 21.1183L43.6196 29.731C43.6233 31.0575 42.6895 32.6725 41.5334 33.339L26.051 42.2647C24.892 42.9328 23.9521 42.398 23.9483 41.0714L23.9238 32.4588C23.9201 31.1323 24.8539 29.5173 26.0129 28.8491L41.4953 19.9235Z" fill="white"/>
<path d="M43.6214 29.7291C43.6214 31.0563 42.6892 32.6729 41.534 33.341L26.0486 42.2658C24.8934 42.9338 23.9524 42.3994 23.9479 41.0723L23.939 38.3289C25.4732 38.3601 27.0833 38.2354 28.7202 37.9459C37.4441 36.3961 43.7195 30.6733 42.7337 25.1643C42.4305 23.4542 41.4627 21.9667 40.0131 20.7776L41.4939 19.9225C42.649 19.2589 43.5901 19.7933 43.5946 21.1205L43.6214 29.7291Z" fill="#E9EDF4"/>
<path d="M25.1078 42.8124C24.8633 42.8124 24.6351 42.7543 24.4323 42.6374C23.9552 42.3628 23.6917 41.8071 23.6892 41.0722L23.6646 32.4595C23.6608 31.0289 24.6351 29.3445 25.8831 28.6248L41.3658 19.699C42.011 19.3281 42.6302 19.275 43.1111 19.5518C43.5882 19.8267 43.8517 20.3827 43.8542 21.1176L43.8782 29.7303C43.882 31.1609 42.9089 32.8446 41.6628 33.5634L26.1801 42.4889C25.8067 42.704 25.4421 42.8124 25.1078 42.8124ZM42.4331 19.8946C42.191 19.8946 41.9155 19.9796 41.6249 20.1477L26.1422 29.0735C25.0579 29.6984 24.1789 31.2168 24.1827 32.4582L24.2074 41.0709C24.2086 41.6131 24.3805 42.0102 24.6901 42.1887C25.0035 42.3691 25.4414 42.317 25.9211 42.0402L41.4037 33.1147C42.4861 32.4907 43.3638 30.9733 43.36 29.7316L43.336 21.1189C43.3348 20.5764 43.1629 20.1792 42.8526 20.0004C42.73 19.9297 42.5885 19.8946 42.4331 19.8946Z" fill="black"/>
<path d="M40.1132 22.9011C40.1161 23.9042 40.8274 24.309 41.7016 23.805L41.717 29.2353C40.8428 29.7392 40.1361 30.9583 40.1389 31.9614L27.4301 39.288C27.4272 38.285 26.7158 37.8835 25.8416 38.3875L25.8262 32.9572C26.7004 32.4532 27.4072 31.2309 27.4043 30.2278L40.1132 22.9011Z" fill="white"/>
<path d="M27.4302 39.5468C27.3853 39.5468 27.3411 39.5354 27.3013 39.5123C27.221 39.4662 27.1718 39.3812 27.1711 39.289C27.1699 38.9029 27.0517 38.6223 26.8381 38.4994C26.6214 38.374 26.3124 38.4147 25.9712 38.6119C25.8903 38.658 25.7923 38.658 25.7127 38.6119C25.6325 38.5658 25.5832 38.4805 25.5825 38.3882L25.5674 32.9577C25.5674 32.8651 25.6167 32.7792 25.6969 32.7328C26.4849 32.2784 27.1484 31.1315 27.1452 30.2286C27.1452 30.1357 27.1945 30.0497 27.2748 30.0033L39.984 22.6768C40.0649 22.6307 40.1629 22.6307 40.2425 22.6768C40.3227 22.7229 40.372 22.8082 40.3726 22.9005C40.3733 23.2872 40.4921 23.5684 40.7063 23.6919C40.9249 23.818 41.2314 23.7773 41.572 23.5807C41.6529 23.5346 41.7508 23.5346 41.8304 23.5807C41.9107 23.6269 41.96 23.7118 41.9606 23.8044L41.9764 29.2346C41.9764 29.3272 41.9271 29.4131 41.8469 29.4596C41.0456 29.9212 40.3954 31.0431 40.3979 31.9606C40.3979 32.0535 40.3486 32.1391 40.2684 32.1855L27.5597 39.5123C27.5193 39.5354 27.4751 39.5468 27.4302 39.5468ZM26.5544 37.9102C26.7503 37.9102 26.9329 37.9566 27.0966 38.0508C27.3778 38.2129 27.5661 38.495 27.6457 38.865L39.8842 31.8092C39.9436 30.7944 40.6039 29.6539 41.4582 29.0912L41.4437 24.2047C41.0772 24.3248 40.7328 24.3042 40.4485 24.1406C40.166 23.9782 39.9777 23.6951 39.8975 23.3242L27.6589 30.3796C27.6002 31.396 26.9405 32.5378 26.0855 33.1012L26.0994 37.9876C26.2561 37.9361 26.4084 37.9102 26.5544 37.9102Z" fill="black"/>
<path d="M33.7636 28.1252C35.1968 27.3005 36.3601 27.9624 36.3648 29.6025C36.3695 31.2414 35.2137 33.24 33.7805 34.0647C32.3483 34.8887 31.1829 34.2257 31.1782 32.5868C31.1736 30.9467 32.3314 28.9492 33.7636 28.1252Z" fill="#F11B21"/>
<path d="M34.815 27.7767C35.5442 28.6699 35.7548 30.0084 35.2592 31.2598C34.5838 32.9693 32.8376 33.8983 31.2969 33.3993C31.6281 34.4204 32.6143 34.7352 33.7801 34.0647C35.213 33.2406 36.3685 31.2419 36.366 29.6015C36.3634 28.391 35.7265 27.7128 34.815 27.7767Z" fill="#F11B21"/>
<path d="M32.6167 34.6794C32.3241 34.6794 32.0505 34.6099 31.8079 34.4699C31.2373 34.141 30.922 33.4725 30.9194 32.5875C30.9144 30.8681 32.1321 28.7655 33.6347 27.9008C34.4138 27.4518 35.1595 27.387 35.7357 27.7191C36.3057 28.0474 36.621 28.7162 36.6242 29.6015C36.6286 31.3225 35.4109 33.4251 33.9096 34.2889C33.459 34.5483 33.0192 34.6794 32.6167 34.6794ZM33.8925 28.3494C32.5339 29.1317 31.4325 31.0321 31.4376 32.5859C31.4395 33.2788 31.6626 33.7884 32.067 34.0213C32.4745 34.2564 33.0382 34.1925 33.6518 33.8402C35.0091 33.0589 36.1105 31.1582 36.106 29.6031C36.1041 28.9099 35.8804 28.4 35.4773 28.1674C35.0678 27.9314 34.5061 27.9965 33.8925 28.3494Z" fill="black"/>
<path d="M34.4215 30.9118C34.4824 30.9626 34.5135 31.0581 34.5139 31.1993C34.5143 31.3147 34.4872 31.4347 34.4336 31.5587C34.3796 31.6835 34.3029 31.8023 34.2038 31.9149C34.1041 32.0278 33.9892 32.1259 33.8581 32.2098L33.8587 32.4412C33.8588 32.4692 33.851 32.4973 33.835 32.5251C33.8189 32.5528 33.7974 32.5748 33.7709 32.59C33.7465 32.604 33.7259 32.6069 33.7097 32.5988C33.6935 32.5907 33.6856 32.5712 33.6855 32.5409L33.6848 32.3095C33.4798 32.4123 33.2878 32.4717 33.1094 32.4873C33.0869 32.4896 33.0678 32.4827 33.0525 32.4662C33.0373 32.4502 33.0294 32.4279 33.0293 32.3998C33.0292 32.3628 33.0404 32.3244 33.0618 32.2846C33.0838 32.245 33.1116 32.215 33.1459 32.1952C33.1645 32.1845 33.1826 32.1786 33.1997 32.1777C33.3536 32.1672 33.5152 32.118 33.6841 32.0293L33.6819 31.28C33.5526 31.3152 33.4439 31.3356 33.3557 31.3404C33.2674 31.3457 33.1934 31.3232 33.1344 31.2735C33.0755 31.2237 33.0458 31.1347 33.0454 31.0064C33.0451 30.8938 33.0693 30.7755 33.117 30.652C33.1651 30.5289 33.2368 30.4079 33.3326 30.29C33.4283 30.1715 33.5432 30.0672 33.6782 29.9766L33.6776 29.7485C33.6775 29.7205 33.6852 29.6919 33.7013 29.663C33.7174 29.6341 33.738 29.6128 33.7624 29.5987C33.7869 29.5846 33.808 29.582 33.8251 29.5918C33.8423 29.6015 33.8507 29.6208 33.8508 29.6489L33.8514 29.8736C34.0374 29.7756 34.2024 29.7165 34.347 29.6962C34.4004 29.6874 34.4269 29.7153 34.4271 29.7809C34.4272 29.8157 34.417 29.8529 34.396 29.8931C34.3751 29.9338 34.3477 29.9635 34.3135 29.9832C34.3022 29.9897 34.287 29.994 34.2679 29.9965C34.1391 30.0185 34.0005 30.0684 33.8522 30.1476L33.8544 30.9232C33.9915 30.8807 34.1047 30.8561 34.1949 30.848C34.285 30.8393 34.3606 30.8609 34.4215 30.9118ZM33.8573 31.9296C34.1249 31.7543 34.2581 31.5536 34.2575 31.3272C34.2572 31.2426 34.2233 31.1964 34.1561 31.1885C34.0885 31.1803 33.9885 31.194 33.8553 31.2291L33.8573 31.9296ZM33.681 30.9735L33.679 30.2568C33.565 30.3398 33.4741 30.4319 33.4063 30.5327C33.338 30.6343 33.3039 30.7347 33.3042 30.835C33.3045 30.9303 33.3365 30.986 33.4003 31.0015C33.4641 31.017 33.5576 31.0075 33.681 30.9735Z" fill="black"/>
<path d="M28.7228 32.7766C29.3149 32.4359 29.7955 32.7093 29.7974 33.3869C29.7993 34.0639 29.3219 34.8895 28.7298 35.2302C28.1382 35.5706 27.6567 35.2967 27.6548 34.6197C27.6529 33.9422 28.1312 33.117 28.7228 32.7766Z" fill="black"/>
<path d="M38.8136 26.9593C39.4057 26.6186 39.8863 26.8921 39.8882 27.5696C39.8901 28.2466 39.4127 29.0723 38.8206 29.413C38.229 29.7534 37.7475 29.4795 37.7456 28.8024C37.7437 28.1249 38.222 27.2997 38.8136 26.9593Z" fill="black"/>
<path d="M27.3651 16.9892C28.7983 16.1646 29.9617 16.8264 29.9664 18.4665C29.971 20.1054 28.8152 22.104 27.382 22.9287C25.9499 23.7527 24.7845 23.0897 24.7798 21.4508C24.7751 19.8107 25.933 17.8133 27.3651 16.9892Z" fill="#F11B21"/>
<path d="M28.4165 16.6409C29.1458 17.5341 29.3564 18.8725 28.8608 20.124C28.1854 21.8335 26.4392 22.7625 24.8984 22.2634C25.2297 23.2845 26.2158 23.5993 27.3817 22.9288C28.8145 22.1048 29.9701 20.106 29.9676 18.4656C29.965 17.2551 29.3281 16.5769 28.4165 16.6409Z" fill="#F11B21"/>
<path d="M26.2184 23.5433C25.9252 23.5433 25.6522 23.4738 25.4096 23.3338C24.839 23.0049 24.523 22.3363 24.5205 21.4514C24.5161 19.7314 25.7338 17.6291 27.2358 16.7649C28.0155 16.3169 28.7631 16.2522 29.3374 16.5833C29.9074 16.9119 30.2227 17.5807 30.2253 18.466C30.2297 20.1866 29.012 22.2893 27.5106 23.1531C27.0601 23.4125 26.6203 23.5433 26.2184 23.5433ZM27.4936 17.2136C26.1356 17.9952 25.0342 19.8957 25.0387 21.4501C25.0406 22.1427 25.2636 22.6523 25.668 22.8855C26.0769 23.1212 26.6393 23.0561 27.2528 22.7044C28.6101 21.9231 29.7115 20.0224 29.7071 18.4673C29.7052 17.7741 29.4821 17.2645 29.079 17.0319C28.6695 16.7962 28.1071 16.861 27.4936 17.2136Z" fill="black"/>
</svg>
