<svg width="109" height="107" viewBox="0 0 109 107" fill="none" xmlns="http://www.w3.org/2000/svg">
<path d="M99.4199 30.9008H9.58008C4.29741 30.9008 0 35.2454 0 40.5861V66.4138C0 71.7545 4.29741 76.0992 9.58008 76.0992H99.4199C104.703 76.0992 109 71.7545 109 66.4138V40.5861C109 35.2454 104.703 30.9008 99.4199 30.9008Z" fill="url(#paint0_linear_2032_1278)"/>
<path d="M92.8204 89.013H89.6271V17.9869H92.8204C94.5855 17.9869 96.0138 16.543 96.0138 14.7585C96.0138 12.974 94.5855 11.53 92.8204 11.53H80.047C78.2819 11.53 76.8536 12.974 76.8536 14.7585C76.8536 16.543 78.2819 17.9869 80.047 17.9869H83.2403V89.013H80.047C78.2819 89.013 76.8536 90.457 76.8536 92.2415C76.8536 94.026 78.2819 95.4699 80.047 95.4699H92.8204C94.5855 95.4699 96.0138 94.026 96.0138 92.2415C96.0138 90.457 94.5855 89.013 92.8204 89.013ZM53.2028 48.4335L51.3068 49.0565V47.0431C51.3068 45.2586 49.8785 43.8146 48.1134 43.8146C46.3483 43.8146 44.92 45.2586 44.92 47.0431V49.0565L43.024 48.4335C41.3556 47.8848 39.5501 48.8086 39.0013 50.5081C38.4556 52.2011 39.3755 54.0234 41.0533 54.5751L42.9478 55.1973L41.7769 56.8262C40.7384 58.2701 41.0565 60.2879 42.4818 61.3346C43.9214 62.3903 45.9138 62.0554 46.9412 60.622L48.1134 58.9905L49.286 60.6222C50.313 62.0552 52.3054 62.3907 53.7454 61.3348C55.1705 60.2881 55.4886 58.2703 54.4503 56.8264L53.2794 55.1975L55.1739 54.5753C56.8517 54.0236 57.7716 52.2013 57.226 50.5083C56.6799 48.8086 54.8776 47.8816 53.2028 48.4335ZM27.6559 48.4335L25.7599 49.0565V47.0431C25.7599 45.2586 24.3316 43.8146 22.5665 43.8146C20.8015 43.8146 19.3732 45.2586 19.3732 47.0431V49.0565L17.4772 48.4335C15.8055 47.8848 14.0032 48.8086 13.4544 50.5081C12.9087 52.2011 13.8286 54.0234 15.5064 54.5751L17.4009 55.1973L16.2301 56.8262C15.1916 58.2701 15.5096 60.2879 16.9349 61.3346C18.3745 62.3903 20.3669 62.0554 21.3944 60.622L22.5665 58.9905L23.7391 60.6222C24.7661 62.0552 26.7586 62.3907 28.1985 61.3348C29.6236 60.2881 29.9417 58.2703 28.9034 56.8264L27.7325 55.1975L29.627 54.5753C31.3048 54.0236 32.2247 52.2013 31.6791 50.5083C31.1301 48.8086 29.3275 47.8816 27.6559 48.4335ZM73.6603 56.7284H67.2736C65.5085 56.7284 64.0802 58.1724 64.0802 59.9569C64.0802 61.7414 65.5085 63.1854 67.2736 63.1854H73.6603C75.4254 63.1854 76.8536 61.7414 76.8536 59.9569C76.8536 58.1724 75.4254 56.7284 73.6603 56.7284Z" fill="#ECECEC"/>
<defs>
<linearGradient id="paint0_linear_2032_1278" x1="54.5" y1="76.0992" x2="54.5" y2="30.9008" gradientUnits="userSpaceOnUse">
<stop stop-color="#39B042"/>
<stop offset="1" stop-color="#4A9D50"/>
</linearGradient>
</defs>
</svg>
