<svg width="107" height="100" viewBox="0 0 107 100" fill="none" xmlns="http://www.w3.org/2000/svg">
<path d="M91.1172 11.7187C79.068 11.7187 73.5025 9.0894 60.0573 2.73804L54.9021 0.308935C54.0204 -0.102979 52.9796 -0.102979 52.0979 0.308935L46.9427 2.73804C33.4975 9.0894 27.932 11.7187 15.8828 11.7187C14.1501 11.7187 12.748 13.0291 12.748 14.6484V56.0546C12.748 93.2623 52.5815 99.897 52.9857 99.9599C53.1571 99.9857 53.3286 99.9999 53.5 99.9999C53.6714 99.9999 53.8429 99.9857 54.0143 99.9599C54.4185 99.897 94.252 93.2623 94.252 56.0546V14.6484C94.252 13.0291 92.8499 11.7187 91.1172 11.7187Z" fill="url(#paint0_linear_2422_8650)"/>
<path fill-rule="evenodd" clip-rule="evenodd" d="M62.4346 53.9703C61.9494 53.7224 59.5639 52.5244 59.1191 52.3589C58.6745 52.1937 58.351 52.1111 58.0275 52.6068C57.7041 53.1025 56.7742 54.2182 56.4912 54.5488C56.2082 54.8792 55.9251 54.9207 55.4399 54.6727C54.9547 54.4248 53.3913 53.9019 51.5381 52.2145C50.0957 50.9012 49.1219 49.2795 48.839 48.7836C48.5559 48.2878 48.8087 48.0198 49.0516 47.7729C49.27 47.5509 49.5369 47.1944 49.7795 46.9051C50.0221 46.616 50.1029 46.4093 50.2646 46.079C50.4264 45.7483 50.3455 45.4592 50.2241 45.2114C50.1029 44.9635 49.1325 42.5256 48.7282 41.5339C48.3344 40.5683 47.9344 40.6991 47.6365 40.6837C47.3538 40.6694 47.03 40.6663 46.7066 40.6663C46.3832 40.6663 45.8575 40.7903 45.4126 41.286C44.968 41.7818 43.7145 42.9801 43.7145 45.4177C43.7145 47.8556 45.4531 50.2105 45.6957 50.541C45.9384 50.8716 49.117 55.874 53.9845 58.0193C55.142 58.5296 56.0458 58.8343 56.7504 59.0625C57.9127 59.4395 58.9704 59.3863 59.8065 59.2587C60.7387 59.1167 62.6772 58.0607 63.0815 56.9039C63.4858 55.7468 63.4858 54.7553 63.3644 54.5488C63.2432 54.3421 62.9198 54.2182 62.4346 53.9703ZM53.5815 66.3088H53.575C50.6789 66.3077 47.8383 65.5134 45.3603 64.0125L44.7709 63.6554L38.6623 65.291L40.2928 59.2117L39.9091 58.5884C38.2935 55.9654 37.4401 52.9339 37.4414 49.8209C37.445 40.7376 44.6853 33.3477 53.588 33.3477C57.899 33.3492 61.9513 35.0651 64.9987 38.1792C68.0458 41.293 69.723 45.4322 69.7213 49.8342C69.7177 58.9182 62.4774 66.3088 53.5815 66.3088ZM67.3178 35.8129C63.6516 32.0663 58.7761 30.0021 53.5814 30C42.8782 30 34.167 38.8912 34.1627 49.8196C34.1613 53.3131 35.0554 56.7229 36.7547 59.7289L34 70L44.2939 67.2437C47.1303 68.8228 50.3237 69.6551 53.5736 69.6562H53.5817C64.2837 69.6562 72.9956 60.7642 73 49.8355C73.002 44.5393 70.984 39.5594 67.3178 35.8129Z" fill="white"/>
<defs>
<linearGradient id="paint0_linear_2422_8650" x1="53.5" y1="99.9999" x2="53.5" y2="-4.76837e-05" gradientUnits="userSpaceOnUse">
<stop stop-color="#4AC053"/>
<stop offset="1" stop-color="#2F8836"/>
</linearGradient>
</defs>
</svg>
