<svg width="107" height="100" viewBox="0 0 107 100" fill="none" xmlns="http://www.w3.org/2000/svg">
<path d="M91.1172 11.7187C79.068 11.7187 73.5025 9.0894 60.0573 2.73804L54.9021 0.308935C54.0204 -0.102979 52.9796 -0.102979 52.0979 0.308935L46.9427 2.73804C33.4975 9.0894 27.932 11.7187 15.8828 11.7187C14.1501 11.7187 12.748 13.0291 12.748 14.6484V56.0546C12.748 93.2623 52.5815 99.897 52.9857 99.9599C53.1571 99.9857 53.3286 99.9999 53.5 99.9999C53.6714 99.9999 53.8429 99.9857 54.0143 99.9599C54.4185 99.897 94.252 93.2623 94.252 56.0546V14.6484C94.252 13.0291 92.8499 11.7187 91.1172 11.7187Z" fill="url(#paint0_linear_2416_3262)"/>
<path d="M67.2764 35.354H39.7227C36.678 35.354 34.2119 37.8013 34.2119 40.8228V59.6763C34.2119 62.6978 36.678 65.145 39.7227 65.145H67.2764C70.3211 65.145 72.7872 62.6978 72.7872 59.6763V40.8228C72.7872 37.8013 70.3211 35.354 67.2764 35.354ZM70.0318 59.6763C70.0318 61.1802 68.7919 62.4106 67.2764 62.4106H39.7227C38.2072 62.4106 36.9673 61.1802 36.9673 59.6763V40.8228C36.9673 39.3188 38.2072 38.0884 39.7227 38.0884H67.2764C68.7919 38.0884 70.0318 39.3188 70.0318 40.8228V59.6763ZM67.1111 44.0767C67.4831 44.7329 67.2351 45.5669 66.5738 45.936L54.1746 52.731C53.7613 52.9634 53.2516 52.9634 52.8383 52.731L40.4391 45.936C38.8685 45.0474 40.1635 42.6958 41.7754 43.5435L53.5133 49.9829L65.2512 43.5435C65.9263 43.1743 66.7529 43.4204 67.1249 44.0767H67.1111Z" fill="white"/>
<defs>
<linearGradient id="paint0_linear_2416_3262" x1="53.5" y1="99.9999" x2="53.5" y2="-4.76837e-05" gradientUnits="userSpaceOnUse">
<stop stop-color="#4AC053"/>
<stop offset="1" stop-color="#2F8836"/>
</linearGradient>
</defs>
</svg>
